<?xml version="1.0" standalone="no"?><!DOCTYPE svg PUBLIC "-//W3C//DTD SVG 1.1//EN" "http://www.w3.org/Graphics/SVG/1.1/DTD/svg11.dtd"><svg t="1718335114687" class="icon" viewBox="0 0 1498 1024" version="1.1" xmlns="http://www.w3.org/2000/svg" p-id="39161" xmlns:xlink="http://www.w3.org/1999/xlink" width="292.578125" height="200"><path d="M32.646147 1008.928462c-22.384793-17.776873-33.261911-41.107502-32.619227-69.967636 2.667743-118.508441 3.928859-237.065387 3.759093-355.658712 0-68.14872-6.305576-181.891602 1.455133-273.201185a42.562635 42.562635 0 0 1 9.09458-22.918342l210.024169-260.953818c13.993527-17.376711 32.182687-26.07113 54.567481-26.07113C583.389665 0 891.10175-0.036378 1202.087884 0.036378c51.293432 0 61.600622 10.913496 91.552107 47.534339 66.535948 81.087276 131.568258 162.004786 195.109058 242.764657 6.281323 7.930474 9.700885 17.764746 9.700885 27.890046 0.242522 204.773565 0.206144 409.498626-0.121261 614.187308-0.121261 57.477746-18.067899 87.671752-77.122039 88.278057-454.159077 4.450281-906.062698 4.413903-1355.698737-0.121261a54.143067 54.143067 0 0 1-32.86175-11.641062z m193.532664-167.825318a74.878709 74.878709 0 0 0 47.776861 16.612766c303.564957 0.412288 610.719242 0.412288 921.462854 0 60.14549 0 108.407395-9.700885 108.771177-78.698433 0.65481-121.988634 0.606305-242.400874-0.121261-361.23672-0.072757-21.341948-6.620854-40.016152-19.644293-56.022614l-145.149498-179.102597c-11.798702-14.551328-27.356497-21.863371-46.685511-21.948253-226.515675-0.072757-452.946466-0.072757-679.304501 0-38.075975 0-51.778476 23.524647-73.726729 49.353255a2842.141158 2842.141158 0 0 0-138.358879 176.313592c-2.279708 3.237671-3.516571 7.093772-3.516571 11.034757 0.485044 131.774402 1.054971 263.015256 1.697655 393.734687 0.084883 19.244131 9.021823 35.893276 26.798696 49.95956z" fill="#4B6182" p-id="39162"></path><path d="M226.178811 841.103144c-17.776873-14.066284-26.713813-30.715428-26.798696-49.95956-0.642684-130.719431-1.212611-261.960285-1.697655-393.734687 0-3.940985 1.236863-7.797087 3.516571-11.034757a2842.141158 2842.141158 0 0 1 138.358879-176.313592c21.948253-25.828607 35.650754-49.353255 73.726729-49.353255 226.358035-0.072757 452.788827-0.072757 679.304501 0 19.329014 0.084883 34.886809 7.396925 46.685511 21.948253l145.149498 179.102597c13.023439 16.006461 19.571536 34.680665 19.644293 56.022614 0.727566 118.835846 0.776071 239.248087 0.121261 361.23672-0.363783 68.997548-48.625688 78.698433-108.771177 78.698433-310.743612 0.412288-617.897897 0.412288-921.462854 0a74.878709 74.878709 0 0 1-47.776861-16.612766z m602.085454-476.155835a75.545645 75.545645 0 0 0-75.424384-75.679032l-17.704116-0.036378a75.545645 75.545645 0 0 0-75.666906 75.424384l-0.278901 156.911822a75.545645 75.545645 0 0 0 75.412258 75.666906l17.704116 0.036378a75.545645 75.545645 0 0 0 75.666906-75.424384l0.291027-156.911822zM521.873925 492.889862a71.907813 71.907813 0 0 0-72.271596-71.531904l-23.039603 0.121261a71.907813 71.907813 0 0 0-71.54403 72.283723l0.848827 162.004786a71.907813 71.907813 0 0 0 72.283723 71.54403l23.039603-0.121261a71.907813 71.907813 0 0 0 71.54403-72.295848l-0.848828-162.004787z m624.67639 2.619239a73.969251 73.969251 0 0 0-73.969251-73.969251h-20.856904a73.969251 73.969251 0 0 0-73.969251 73.969251v157.88191a73.969251 73.969251 0 0 0 73.969251 73.969252h20.856904a73.969251 73.969251 0 0 0 73.969251-73.969252v-157.88191z" fill="#E2F0FA" p-id="39163"></path><path d="M659.592257 289.096958m75.54553 0.131852l17.704089 0.030899q75.54553 0.131852 75.413678 75.677382l-0.273862 156.911583q-0.131852 75.54553-75.677382 75.413678l-17.704089-0.030899q-75.54553-0.131852-75.413679-75.677382l0.273863-156.911583q0.131852-75.54553 75.677382-75.413678Z" fill="#FDA35E" p-id="39164"></path><path d="M354.643621 421.857509m71.906827-0.376507l23.039287-0.120635q71.906827-0.376507 72.283334 71.530321l0.848252 162.002566q0.376507 71.906827-71.530321 72.283334l-23.039287 0.120635q-71.906827 0.376507-72.283334-71.530321l-0.848252-162.002566q-0.376507-71.906827 71.530321-72.283334Z" fill="#FDA35E" p-id="39165"></path><path d="M977.754909 421.53985m73.969251 0l20.856904 0q73.969251 0 73.969251 73.969251l0 157.88191q0 73.969251-73.969251 73.969252l-20.856904 0q-73.969251 0-73.969251-73.969252l0-157.88191q0-73.969251 73.969251-73.969251Z" fill="#FDA35E" p-id="39166"></path></svg>